<svg width="20" height="19" viewBox="0 0 20 19" fill="none" xmlns="http://www.w3.org/2000/svg">
<path d="M9.5852 0.718538C9.73487 0.257883 10.3866 0.257883 10.5363 0.718539L12.4306 6.54884C12.4976 6.75485 12.6895 6.89433 12.9062 6.89433L19.0365 6.89433C19.5209 6.89433 19.7223 7.51414 19.3304 7.79884L14.3708 11.4022C14.1956 11.5295 14.1223 11.7552 14.1892 11.9612L16.0836 17.7915C16.2333 18.2521 15.706 18.6352 15.3142 18.3505L10.3546 14.7472C10.1794 14.6199 9.94207 14.6199 9.76683 14.7472L4.80728 18.3505C4.41542 18.6352 3.88818 18.2521 4.03786 17.7915L5.93224 11.9612C5.99918 11.7552 5.92585 11.5295 5.7506 11.4022L0.79105 7.79884C0.399193 7.51414 0.600581 6.89433 1.08494 6.89433L7.21529 6.89433C7.4319 6.89433 7.62388 6.75485 7.69081 6.54884L9.5852 0.718538Z" fill="#C5E812"/>
</svg>
