<svg width="25" height="25" viewBox="0 0 25 25" fill="none" xmlns="http://www.w3.org/2000/svg">
<path fill-rule="evenodd" clip-rule="evenodd" d="M20.2767 4.92997C20.5238 4.82596 20.7943 4.79008 21.0599 4.82608C21.3256 4.86208 21.5768 4.96863 21.7873 5.13465C21.9979 5.30067 22.1601 5.52008 22.257 5.77005C22.354 6.02002 22.3822 6.29141 22.3387 6.55597L20.0707 20.313C19.8507 21.64 18.3947 22.401 17.1777 21.74C16.1597 21.187 14.6477 20.335 13.2877 19.446C12.6077 19.001 10.5247 17.576 10.7807 16.562C11.0007 15.695 14.5007 12.437 16.5007 10.5C17.2857 9.73897 16.9277 9.29997 16.0007 9.99997C13.6977 11.738 10.0027 14.381 8.78065 15.125C7.70265 15.781 7.14065 15.893 6.46865 15.781C5.24265 15.577 4.10565 15.261 3.17765 14.876C1.92365 14.356 1.98465 12.632 3.17665 12.13L20.2767 4.92997Z" fill="#C5E812"/>
</svg>
