<svg width="311" height="133" viewBox="0 0 311 133" fill="none" xmlns="http://www.w3.org/2000/svg">
<path d="M119.233 61.5045V45.8926L119.792 48.7353L104.879 28.8825H112.335L123.474 44.1217L121.33 44.0285L131.722 28.8825H138.713L124.778 48.5023L125.291 45.5197V61.5045H119.233ZM160.005 61.9705C157.426 61.9705 155.049 61.5511 152.874 60.7123C150.731 59.8734 148.851 58.6928 147.236 57.1705C145.62 55.6481 144.377 53.8617 143.507 51.8111C142.637 49.7606 142.202 47.5392 142.202 45.1469C142.202 42.7546 142.637 40.5332 143.507 38.4827C144.377 36.4322 145.62 34.6457 147.236 33.1234C148.851 31.601 150.731 30.4204 152.874 29.5816C155.049 28.7427 157.426 28.3233 160.005 28.3233C162.583 28.3233 164.96 28.7427 167.135 29.5816C169.31 30.4204 171.189 31.6166 172.774 33.17C174.358 34.6923 175.586 36.4788 176.455 38.5293C177.356 40.5488 177.807 42.7546 177.807 45.1469C177.807 47.5081 177.356 49.714 176.455 51.7645C175.586 53.815 174.358 55.617 172.774 57.1705C171.189 58.6928 169.31 59.8734 167.135 60.7123C164.96 61.5511 162.583 61.9705 160.005 61.9705ZM160.005 56.1918C161.713 56.1918 163.267 55.9277 164.665 55.3995C166.094 54.8403 167.321 54.0636 168.347 53.0694C169.403 52.0441 170.211 50.8635 170.77 49.5276C171.36 48.1916 171.655 46.7314 171.655 45.1469C171.655 43.5624 171.36 42.1022 170.77 40.7663C170.211 39.4303 169.403 38.2652 168.347 37.271C167.321 36.2458 166.094 35.4691 164.665 34.9409C163.267 34.3817 161.713 34.102 160.005 34.102C158.327 34.102 156.774 34.3817 155.344 34.9409C153.915 35.4691 152.673 36.2458 151.616 37.271C150.591 38.2652 149.799 39.4303 149.239 40.7663C148.68 42.1022 148.401 43.5624 148.401 45.1469C148.401 46.7314 148.68 48.1916 149.239 49.5276C149.799 50.8635 150.591 52.0441 151.616 53.0694C152.673 54.0636 153.915 54.8403 155.344 55.3995C156.774 55.9277 158.327 56.1918 160.005 56.1918ZM203.154 61.9705C200.607 61.9705 198.23 61.5822 196.024 60.8055C193.849 59.9977 191.938 58.8637 190.292 57.4035C188.676 55.9122 187.402 54.1413 186.47 52.0907C185.569 50.0091 185.119 47.6945 185.119 45.1469C185.119 42.7857 185.569 40.5954 186.47 38.5759C187.402 36.5254 188.707 34.7545 190.385 33.2632C192.063 31.7408 194.02 30.5602 196.257 29.7214C198.525 28.8825 200.964 28.4631 203.574 28.4631C205.562 28.4631 207.426 28.7116 209.166 29.2087C210.937 29.7058 212.506 30.3738 213.873 31.2127C215.271 32.0515 216.405 32.968 217.275 33.9622L213.453 38.0633C212.521 37.2555 211.527 36.572 210.471 36.0128C209.446 35.4225 208.343 34.9564 207.162 34.6147C206.012 34.2729 204.801 34.102 203.527 34.102C201.818 34.102 200.218 34.3817 198.727 34.9409C197.267 35.5001 195.993 36.2768 194.905 37.271C193.818 38.2652 192.964 39.4303 192.342 40.7663C191.721 42.1022 191.41 43.5624 191.41 45.1469C191.41 46.8557 191.721 48.4091 192.342 49.8072C192.995 51.1742 193.88 52.3548 194.999 53.349C196.148 54.3121 197.453 55.0578 198.913 55.586C200.374 56.0831 201.927 56.3316 203.574 56.3316C204.972 56.3316 206.277 56.1607 207.488 55.819C208.731 55.4772 209.818 55.0112 210.75 54.4209C211.683 53.7995 212.397 53.0694 212.894 52.2306C213.422 51.3917 213.671 50.4907 213.64 49.5276V48.6421L214.479 49.7606H203.247V44.4013H219.698C219.76 44.8052 219.807 45.2091 219.838 45.6129C219.869 45.9858 219.885 46.3431 219.885 46.6848C219.916 46.9955 219.931 47.2596 219.931 47.4771C219.931 49.7451 219.512 51.7801 218.673 53.582C217.834 55.3529 216.653 56.8598 215.131 58.1025C213.64 59.3453 211.869 60.3084 209.818 60.9919C207.799 61.6443 205.578 61.9705 203.154 61.9705ZM224.857 61.5045L238.884 28.8825H244.896L258.83 61.5045H252.446L244.057 41.8381C243.871 41.341 243.638 40.7352 243.358 40.0206C243.11 39.306 242.83 38.5604 242.519 37.7837C242.24 36.9759 241.96 36.2147 241.681 35.5001C241.432 34.7545 241.23 34.1331 241.075 33.636L242.426 33.5894C242.24 34.2419 242.007 34.9409 241.727 35.6865C241.479 36.4011 241.215 37.1312 240.935 37.8769C240.655 38.5915 240.376 39.306 240.096 40.0206C239.816 40.7041 239.568 41.3566 239.35 41.9779L230.962 61.5045H224.857ZM231.148 54.2345L233.339 48.9684H249.976L251.7 54.2345H231.148Z" fill="#D9D9D9"/>
<path d="M162.358 105.44V72.8178H168.416V105.44H162.358ZM138.824 105.44V72.8178H144.882V105.44H138.824ZM141.34 92.1114V86.4259H165.294V92.1114H141.34ZM176.368 105.44L190.395 72.8178H196.407L210.341 105.44H203.957L195.568 85.7734C195.382 85.2763 195.149 84.6705 194.869 83.9559C194.621 83.2413 194.341 82.4957 194.03 81.719C193.751 80.9112 193.471 80.15 193.192 79.4354C192.943 78.6898 192.741 78.0684 192.586 77.5713L193.937 77.5247C193.751 78.1772 193.518 78.8762 193.238 79.6218C192.99 80.3364 192.726 81.0665 192.446 81.8122C192.166 82.5268 191.887 83.2413 191.607 83.9559C191.327 84.6394 191.079 85.2919 190.861 85.9132L182.473 105.44H176.368ZM182.659 98.1698L184.85 92.9037H201.487L203.211 98.1698H182.659ZM223.466 105.44V78.4102H212.841V72.8178H240.429V78.4102H229.524V105.44H223.466ZM242.904 105.44L256.932 72.8178H262.944L276.878 105.44H270.493L262.105 85.7734C261.918 85.2763 261.685 84.6705 261.406 83.9559C261.157 83.2413 260.878 82.4957 260.567 81.719C260.287 80.9112 260.008 80.15 259.728 79.4354C259.48 78.6898 259.278 78.0684 259.122 77.5713L260.474 77.5247C260.287 78.1772 260.054 78.8762 259.775 79.6218C259.526 80.3364 259.262 81.0665 258.982 81.8122C258.703 82.5268 258.423 83.2413 258.144 83.9559C257.864 84.6394 257.615 85.2919 257.398 85.9132L249.009 105.44H242.904ZM249.196 98.1698L251.386 92.9037H268.023L269.748 98.1698H249.196Z" fill="#D9D9D9"/>
<path d="M131.226 110.731L81.4969 24.5969L43.2265 90.8833H55.6666L81.6253 45.9215L112.776 99.8756L38.0347 99.8756L31.7676 110.731H131.226Z" fill="#C5E812"/>
</svg>
