<svg width="143" height="25" viewBox="0 0 143 25" fill="none" xmlns="http://www.w3.org/2000/svg">
<path d="M28.0957 24.5143L14.2979 0.615723L3.67938 19.0075H7.131L14.3335 6.53243L22.9764 21.5025L2.23888 21.5025L0.5 24.5143H28.0957Z" fill="#C5E812"/>
<path d="M34.8185 19.0649V13.3952L35.0216 14.4276L29.6057 7.21781H32.6691L36.714 12.7521L35.5801 12.7183L39.3542 7.21781H42.2483L37.1879 14.343L37.3741 13.2598V19.0649H34.8185ZM49.9603 19.2342C49.0013 19.2342 48.1212 19.0819 47.3201 18.7772C46.5303 18.4726 45.8364 18.0438 45.2384 17.491C44.6404 16.9381 44.1834 16.2893 43.8675 15.5447C43.5516 14.8 43.3936 13.9876 43.3936 13.1075C43.3936 12.2275 43.5516 11.4207 43.8675 10.6873C44.1834 9.94265 44.6404 9.29388 45.2384 8.74102C45.8364 8.17687 46.5303 7.74247 47.3201 7.43783C48.1212 7.13319 49.0013 6.98087 49.9603 6.98087C50.9194 6.98087 51.7938 7.13319 52.5836 7.43783C53.3847 7.74247 54.0786 8.17687 54.6653 8.74102C55.2633 9.29388 55.7203 9.94265 56.0362 10.6873C56.3634 11.432 56.527 12.2387 56.527 13.1075C56.527 13.9763 56.3634 14.7831 56.0362 15.5277C55.7203 16.2724 55.2633 16.9268 54.6653 17.491C54.0786 18.0438 53.3847 18.4726 52.5836 18.7772C51.7938 19.0819 50.9194 19.2342 49.9603 19.2342ZM49.9603 16.8309C50.5358 16.8309 51.0661 16.7406 51.5512 16.5601C52.0477 16.3796 52.4708 16.1201 52.8206 15.7816C53.1816 15.4431 53.4581 15.0482 53.6499 14.5969C53.853 14.1456 53.9545 13.6491 53.9545 13.1075C53.9545 12.5659 53.853 12.0695 53.6499 11.6182C53.4581 11.1669 53.1816 10.7776 52.8206 10.4504C52.4708 10.1119 52.0477 9.85239 51.5512 9.67186C51.0661 9.48005 50.5358 9.38415 49.9603 9.38415C49.3849 9.38415 48.8546 9.48005 48.3694 9.67186C47.8843 9.85239 47.4555 10.1119 47.0832 10.4504C46.7221 10.7889 46.4457 11.1838 46.2539 11.6351C46.0733 12.0864 45.9831 12.5772 45.9831 13.1075C45.9831 13.6491 46.0733 14.1456 46.2539 14.5969C46.4457 15.0369 46.7221 15.4318 47.0832 15.7816C47.4555 16.1201 47.8843 16.3796 48.3694 16.5601C48.8546 16.7406 49.3849 16.8309 49.9603 16.8309ZM65.6948 19.2342C64.747 19.2342 63.8726 19.0931 63.0715 18.8111C62.2704 18.5177 61.5765 18.1059 60.9898 17.5756C60.4031 17.034 59.9461 16.3852 59.6189 15.6293C59.2917 14.8733 59.1281 14.0327 59.1281 13.1075C59.1281 12.2387 59.2917 11.4376 59.6189 10.7043C59.9574 9.95958 60.4313 9.31645 61.0406 8.77486C61.6611 8.222 62.3832 7.79325 63.2069 7.48861C64.0306 7.18397 64.9332 7.03164 65.9148 7.03164C66.6482 7.03164 67.3308 7.12191 67.9627 7.30244C68.6058 7.48296 69.1812 7.71991 69.689 8.01326C70.208 8.30662 70.6311 8.63383 70.9583 8.99488L69.3843 10.6873C69.0684 10.4165 68.7243 10.1796 68.3519 9.9765C67.9909 9.77341 67.6016 9.61545 67.1841 9.50262C66.778 9.3785 66.3492 9.31645 65.8979 9.31645C65.3112 9.31645 64.7639 9.41235 64.2562 9.60416C63.7598 9.79597 63.3197 10.0611 62.9361 10.3996C62.5638 10.7381 62.2704 11.1386 62.056 11.6013C61.8529 12.0639 61.7514 12.5659 61.7514 13.1075C61.7514 13.7055 61.8586 14.2415 62.073 14.7154C62.2986 15.1892 62.6033 15.5898 62.9869 15.917C63.3705 16.2442 63.8105 16.4981 64.307 16.6786C64.8147 16.8478 65.3563 16.9325 65.9317 16.9325C66.3943 16.9325 66.8344 16.876 67.2518 16.7632C67.6806 16.6504 68.0529 16.4924 68.3689 16.2893C68.6848 16.075 68.9274 15.8211 69.0966 15.5277C69.2659 15.2344 69.3448 14.9241 69.3336 14.5969V14.2415L69.672 14.7661H65.7117V12.6675H71.8045C71.8158 12.8142 71.8271 12.9721 71.8384 13.1414C71.8609 13.3106 71.8722 13.4742 71.8722 13.6322C71.8835 13.7789 71.8891 13.8917 71.8891 13.9707C71.8891 14.7831 71.7312 15.5164 71.4153 16.1709C71.1106 16.8253 70.6819 17.3781 70.129 17.8295C69.5874 18.2808 68.9387 18.6305 68.1827 18.8788C67.4267 19.1157 66.5974 19.2342 65.6948 19.2342ZM73.5237 19.0649L78.6349 7.21781H81.0212L86.1155 19.0649H83.4753L80.5812 12.2782C80.4909 12.0751 80.395 11.8438 80.2935 11.5843C80.2032 11.3248 80.1073 11.0597 80.0058 10.7889C79.9155 10.5181 79.8252 10.2529 79.735 9.99343C79.656 9.73392 79.5826 9.50262 79.5149 9.29952L80.0396 9.2826C79.9719 9.54211 79.8929 9.80162 79.8027 10.0611C79.7237 10.3093 79.6334 10.5632 79.5319 10.8227C79.4416 11.0822 79.3457 11.3361 79.2442 11.5843C79.1426 11.8326 79.0411 12.0808 78.9395 12.329L76.0454 19.0649H73.5237ZM75.8593 16.6447L76.7224 14.5969H82.7983L83.4583 16.6447H75.8593Z" fill="#DDDDDD"/>
<path d="M98.7627 19.0649V7.21781H101.301V19.0649H98.7627ZM90.3513 19.0649V7.21781H92.8899V19.0649H90.3513ZM91.3667 14.343L91.3837 12.0413H100.066V14.343H91.3667ZM104.001 19.0649L109.112 7.21781H111.498L116.592 19.0649H113.952L111.058 12.2782C110.968 12.0751 110.872 11.8438 110.77 11.5843C110.68 11.3248 110.584 11.0597 110.483 10.7889C110.392 10.5181 110.302 10.2529 110.212 9.99343C110.133 9.73392 110.06 9.50262 109.992 9.29952L110.517 9.2826C110.449 9.54211 110.37 9.80162 110.28 10.0611C110.201 10.3093 110.11 10.5632 110.009 10.8227C109.919 11.0822 109.823 11.3361 109.721 11.5843C109.62 11.8326 109.518 12.0808 109.416 12.329L106.522 19.0649H104.001ZM106.336 16.6447L107.199 14.5969H113.275L113.935 16.6447H106.336ZM121.258 19.0649V9.50262H117.332V7.21781H127.825V9.50262H123.797V19.0649H121.258ZM128.577 19.0649L133.689 7.21781H136.075L141.169 19.0649H138.529L135.635 12.2782C135.545 12.0751 135.449 11.8438 135.347 11.5843C135.257 11.3248 135.161 11.0597 135.06 10.7889C134.969 10.5181 134.879 10.2529 134.789 9.99343C134.71 9.73392 134.636 9.50262 134.569 9.29952L135.093 9.2826C135.026 9.54211 134.947 9.80162 134.856 10.0611C134.777 10.3093 134.687 10.5632 134.586 10.8227C134.495 11.0822 134.399 11.3361 134.298 11.5843C134.196 11.8326 134.095 12.0808 133.993 12.329L131.099 19.0649H128.577ZM130.913 16.6447L131.776 14.5969H137.852L138.512 16.6447H130.913Z" fill="#DDDDDD"/>
</svg>
