<svg width="21" height="20" viewBox="0 0 21 20" fill="none" xmlns="http://www.w3.org/2000/svg">
<path d="M17.9563 6.92074C17.9233 4.44634 16.1221 2.58187 13.5913 2.52991C11.5399 2.43821 9.45925 2.41181 7.40877 2.52991C4.88991 2.58203 3.09115 4.43321 3.0446 6.89491C2.95299 8.94653 2.92448 11.0276 3.0446 13.0782C3.09516 15.5997 4.95349 17.3883 7.4096 17.4691C9.4612 17.5607 11.5423 17.5893 13.5929 17.4691C16.1153 17.4194 17.9086 15.5647 17.9579 13.1032C18.0496 11.0517 18.0763 8.97128 17.9563 6.92074ZM6.64293 9.98241C6.64293 5.01038 14.3479 5.02731 14.3479 9.98241C14.3479 14.9375 6.64293 14.9544 6.64293 9.98241ZM14.5013 6.88574C13.3467 6.88681 13.3466 5.08949 14.5009 5.08949C15.6534 5.08949 15.6605 6.88574 14.5013 6.88574Z" fill="white"/>
<path d="M7.99219 9.9826C7.99219 6.75515 12.9972 6.75515 12.9972 9.9826C12.9972 13.2101 7.99219 13.2101 7.99219 9.9826Z" fill="white"/>
</svg>
