<svg width="21" height="21" viewBox="0 0 21 21" fill="none" xmlns="http://www.w3.org/2000/svg">
    <g clip-path="url(#clip0_312_637)">
        <path fill-rule="evenodd" clip-rule="evenodd" d="M16.9809 4.19164C17.1868 4.10496 17.4122 4.07507 17.6336 4.10507C17.855 4.13507 18.0643 4.22386 18.2398 4.36221C18.4152 4.50056 18.5504 4.6834 18.6312 4.89171C18.712 5.10001 18.7355 5.32617 18.6992 5.54664L16.8092 17.0108C16.6259 18.1166 15.4125 18.7508 14.3984 18.2C13.55 17.7391 12.29 17.0291 11.1567 16.2883C10.59 15.9175 8.8542 14.73 9.06754 13.885C9.25087 13.1625 12.1675 10.4475 13.8342 8.8333C14.4884 8.19914 14.19 7.8333 13.4175 8.41664C11.4992 9.86497 8.4192 12.0675 7.40087 12.6875C6.50254 13.2341 6.0342 13.3275 5.4742 13.2341C4.45254 13.0641 3.50504 12.8008 2.7317 12.48C1.6867 12.0466 1.73754 10.61 2.73087 10.1916L16.9809 4.19164Z" fill="white"/>
    </g>
    <defs>
        <clipPath id="clip0_312_637">
            <rect width="20" height="20" fill="white" transform="translate(0.5 0.5)"/>
        </clipPath>
    </defs>
</svg>
