<svg width="48" height="49" viewBox="0 0 48 49" fill="none" xmlns="http://www.w3.org/2000/svg">
<path d="M15.8265 40.1194C19.6314 42.0712 24.0082 42.5998 28.1684 41.6101C32.3286 40.6204 35.9984 38.1773 38.5167 34.7212C41.0349 31.265 42.236 27.0231 41.9034 22.7598C41.5708 18.4965 39.7264 14.4922 36.7027 11.4684C33.6789 8.44459 29.6745 6.60023 25.4112 6.26763C21.1479 5.93504 16.906 7.13609 13.4498 9.65435C9.99371 12.1726 7.55066 15.8425 6.56092 20.0026C5.57118 24.1628 6.09985 28.5396 8.05166 32.3445L4.06454 44.1065L15.8265 40.1194Z" stroke="#C5E812" stroke-width="2" stroke-linecap="round" stroke-linejoin="round"/>
<path d="M18.1989 18.19C18.6676 16.8576 19.5927 15.7342 20.8104 15.0185C22.028 14.3029 23.4597 14.0413 24.8517 14.2801C26.2438 14.5188 27.5064 15.2426 28.416 16.3231C29.3256 17.4036 29.8234 18.7712 29.8213 20.1836C29.8213 24.1707 23.8406 26.1642 23.8406 26.1642M24.0001 34.1385H24.0201" stroke="#C5E812" stroke-width="2" stroke-linecap="round" stroke-linejoin="round"/>
</svg>
