<svg width="48" height="49" viewBox="0 0 48 49" fill="none" xmlns="http://www.w3.org/2000/svg">
<path d="M31.9743 42.1122V38.1251C31.9743 36.0102 31.1342 33.9819 29.6387 32.4865C28.1433 30.991 26.115 30.1509 24.0001 30.1509H12.0388C9.92388 30.1509 7.8956 30.991 6.40014 32.4865C4.90468 33.9819 4.06454 36.0102 4.06454 38.1251V42.1122" stroke="#C5E812" stroke-width="2" stroke-linecap="round" stroke-linejoin="round"/>
<path d="M18.0191 22.1777C22.4232 22.1777 25.9934 18.6075 25.9934 14.2035C25.9934 9.79943 22.4232 6.22925 18.0191 6.22925C13.6151 6.22925 10.0449 9.79943 10.0449 14.2035C10.0449 18.6075 13.6151 22.1777 18.0191 22.1777Z" stroke="#C5E812" stroke-width="2" stroke-linecap="round" stroke-linejoin="round"/>
<path d="M43.9355 42.1123V38.1252C43.9342 36.3583 43.3461 34.642 42.2637 33.2456C41.1812 31.8492 39.6656 30.8518 37.9548 30.4101M31.9742 6.48743C33.6895 6.92661 35.2098 7.92418 36.2955 9.32288C37.3812 10.7216 37.9705 12.4418 37.9705 14.2125C37.9705 15.9831 37.3812 17.7033 36.2955 19.102C35.2098 20.5007 33.6895 21.4983 31.9742 21.9375" stroke="#C5E812" stroke-width="2" stroke-linecap="round" stroke-linejoin="round"/>
</svg>
