<svg width="48" height="49" viewBox="0 0 48 49" fill="none" xmlns="http://www.w3.org/2000/svg">
<path d="M35.3634 15.7526C35.9469 15.1907 36.6586 14.7796 37.4368 14.5547C38.215 14.3298 39.0363 14.2981 39.8296 14.4621C40.6229 14.6262 41.3642 14.9811 41.9894 15.4962C42.6146 16.0113 43.1048 16.671 43.4176 17.4183C43.7304 18.1655 43.8564 18.9777 43.7845 19.7846C43.7127 20.5914 43.4453 21.3687 43.0055 22.0489C42.5656 22.7291 41.9666 23.2919 41.2603 23.6885C40.5539 24.0851 39.7616 24.3035 38.9518 24.3249H4.06454M19.2156 9.57257C19.6774 9.1015 20.249 8.7524 20.879 8.55656C21.5089 8.36072 22.1777 8.32426 22.8252 8.45045C23.4727 8.57664 24.0788 8.86154 24.5892 9.2796C25.0995 9.69766 25.4982 10.2358 25.7494 10.8459C26.0005 11.4559 26.0964 12.1187 26.0284 12.7749C25.9604 13.4311 25.7307 14.0602 25.3597 14.6057C24.9888 15.1513 24.4883 15.5963 23.9031 15.9008C23.3179 16.2054 22.6662 16.3599 22.0066 16.3507H4.06454M25.1962 39.0772C25.6581 39.5483 26.2297 39.8974 26.8596 40.0932C27.4896 40.2891 28.1583 40.3255 28.8059 40.1993C29.4534 40.0731 30.0595 39.7883 30.5699 39.3702C31.0802 38.9521 31.4788 38.414 31.73 37.8039C31.9812 37.1939 32.0771 36.5311 32.0091 35.8749C31.9411 35.2187 31.7113 34.5896 31.3404 34.044C30.9695 33.4985 30.469 33.0535 29.8837 32.749C29.2985 32.4444 28.6469 32.2899 27.9872 32.2991H4.06454" stroke="#C5E812" stroke-width="2" stroke-linecap="round" stroke-linejoin="round"/>
</svg>
